HIERARCHY
ROOT Hips
{
	OFFSET -0.179506 -22.333345 2.821913
	CHANNELS 6 Xposition Yposition Zposition Zrotation Yrotation Xrotation 
	JOINT LeftUpLeg
	{
		OFFSET 6.951974 -9.140623 -0.681533
		CHANNELS 3 Zrotation Yrotation Xrotation
		JOINT LeftLeg
		{
			OFFSET 3.427654 -37.519855 -0.449580
			CHANNELS 3 Zrotation Yrotation Xrotation
			JOINT LeftFoot
			{
				OFFSET -1.359570 -39.796059 -4.369333
				CHANNELS 3 Zrotation Yrotation Xrotation
				JOINT LeftToe
				{
					OFFSET 2.635814 -5.579078 11.928840
					CHANNELS 3 Zrotation Yrotation Xrotation
					End Site
					{
						OFFSET 0.000000 0.000000 0.000000
					}
				}
			}
		}
	}
	JOINT RightUpLeg
	{
		OFFSET -6.767048 -9.052170 -0.431982
		CHANNELS 3 Zrotation Yrotation Xrotation
		JOINT RightLeg
		{
			OFFSET -3.829005 -38.256897 -0.885003
			CHANNELS 3 Zrotation Yrotation Xrotation
			JOINT RightFoot
			{
				OFFSET 1.577377 -39.841461 -4.231180
				CHANNELS 3 Zrotation Yrotation Xrotation
				JOINT RightToe
				{
					OFFSET -2.537174 -4.814398 12.334795
					CHANNELS 3 Zrotation Yrotation Xrotation
					End Site
					{
						OFFSET 0.000000 0.000000 0.000000
					}
				}
			}
		}
	}
	JOINT Spine
	{
		OFFSET -0.253288 10.896323 -2.669631
		CHANNELS 3 Zrotation Yrotation Xrotation
		JOINT Spine1
		{
			OFFSET 0.548704 13.518043 0.109247
			CHANNELS 3 Zrotation Yrotation Xrotation
			JOINT Spine2
			{
				OFFSET 0.145701 5.292222 2.542457
				CHANNELS 3 Zrotation Yrotation Xrotation
				JOINT Neck
				{
					OFFSET -0.277840 21.387037 -4.285703
					CHANNELS 3 Zrotation Yrotation Xrotation
					JOINT Head
					{
						OFFSET 0.515184 6.496960 5.134897
						CHANNELS 3 Zrotation Yrotation Xrotation
						End Site
						{
							OFFSET 0.000000 0.000000 0.000000
						}
					}
				}
				JOINT LeftShoulder
				{
					OFFSET 7.884473 12.174932 -3.408961
					CHANNELS 3 Zrotation Yrotation Xrotation
					JOINT LeftArm
					{
						OFFSET 9.097692 3.046888 -0.886815
						CHANNELS 3 Zrotation Yrotation Xrotation
						JOINT LeftForeArm
						{
							OFFSET 25.961220 -1.277207 -2.745643
							CHANNELS 3 Zrotation Yrotation Xrotation
							JOINT LeftHand
							{
								OFFSET 24.923361 0.898606 -0.117091
								CHANNELS 3 Zrotation Yrotation Xrotation
								End Site
								{
									OFFSET 0.000000 0.000000 0.000000
								}
							}
						}
					}
				}
				JOINT RightShoulder
				{
					OFFSET -8.175920 11.883285 -3.861528
					CHANNELS 3 Zrotation Yrotation Xrotation
					JOINT RightArm
					{
						OFFSET -9.601238 3.255117 -0.914307
						CHANNELS 3 Zrotation Yrotation Xrotation
						JOINT RightForeArm
						{
							OFFSET -25.374195 -1.332924 -2.140099
							CHANNELS 3 Zrotation Yrotation Xrotation
							JOINT RightHand
							{
								OFFSET -25.529810 0.777228 -0.555919
								CHANNELS 3 Zrotation Yrotation Xrotation
								End Site
								{
									OFFSET 0.000000 0.000000 0.000000
								}
							}
						}
					}
				}
			}
		}
	}
}
MOTION
Frames: 12
Frame Time: 0.033333
-26.455666 -8.043089 94.334740 -160.258164 -0.398670 85.520677 -8.257888 -3.028040 17.272767 2.780906 -19.639009 -4.629240 -0.104775 6.132001 -7.692322 nan nan nan -5.118426 8.764874 -22.624207 2.094199 17.366044 7.332749 15.081380 6.160715 5.666477 nan nan nan -0.256943 -6.161146 2.200744 4.738592 -5.292597 10.052118 1.010378 -3.434619 -4.241662 -7.483521 0.348280 10.306695 5.834504 2.156757 -6.072999 -20.012038 1.282579 -2.656659 -55.682459 -21.293733 13.420758 23.307190 -37.878897 -33.880530 -4.296220 -24.192036 -11.935310 18.021371 -8.362935 0.524693 57.034506 -3.875330 6.979760 -6.605530 28.301657 -9.693231 12.923094 12.964887 -7.185225 
-26.510704 -7.421910 94.259834 -159.527922 -0.352747 85.624122 -7.923550 -3.217509 17.437039 2.531337 -20.061730 -4.310681 -0.037315 6.030491 -8.042961 nan nan nan -5.090761 8.964833 -22.559864 2.232834 17.654518 7.759159 15.051534 6.315954 6.645781 nan nan nan -0.400981 -6.204016 1.924876 4.904156 -5.372849 10.318993 1.008605 -3.555502 -4.461707 -7.437339 0.227790 10.281092 5.886094 2.079371 -5.973100 -20.120992 1.075911 -2.135040 -55.711503 -21.026264 13.323896 23.252282 -37.872024 -33.507544 -4.726805 -24.065878 -11.809629 18.216042 -8.437903 0.412951 56.996714 -4.047250 6.863453 -6.726902 28.235422 -9.827535 13.215979 12.828672 -7.458287 
-26.577749 -6.761782 94.203140 -158.951778 -0.204767 85.746988 -7.570821 -3.276469 17.739563 2.565372 -20.424247 -4.230730 0.005064 5.945479 -8.372510 nan nan nan -4.898539 9.317920 -22.500285 2.288122 18.106093 8.266917 15.001038 6.552999 7.320968 nan nan nan -0.384026 -6.281614 1.470259 5.039925 -5.438455 10.638797 1.015304 -3.682376 -4.554251 -7.375017 0.290119 10.262161 5.762540 1.894242 -6.011568 -20.052380 0.826751 -1.548021 -56.002333 -20.507507 12.841106 23.649317 -37.855377 -33.189359 -6.208455 -23.753892 -10.765675 18.305503 -8.269634 0.458560 57.092902 -4.192614 6.611244 -7.172577 28.230628 -9.810246 14.263743 12.560897 -7.288622 
-26.673452 -6.082163 94.138596 -158.379971 -0.059881 85.866282 -7.215584 -3.301757 18.074013 2.605690 -20.790696 -4.183330 0.021607 5.817682 -8.662274 nan nan nan -4.711973 9.735883 -22.450042 2.316437 18.789348 8.825594 15.219176 6.886817 7.863480 nan nan nan -0.297761 -6.382612 1.044420 5.153880 -5.504936 10.717143 0.975477 -3.765572 -4.478739 -7.418929 0.185372 10.310025 5.696672 1.803932 -6.008210 -19.984779 0.659282 -1.042425 -56.358376 -19.974929 12.775851 23.091423 -38.059984 -33.082158 -5.151144 -23.889838 -11.593706 18.265630 -8.223370 0.551032 56.900517 -4.387161 6.824116 -6.717293 28.515435 -8.828248 13.728252 12.661711 -7.968759 
-26.781086 -5.416291 94.072556 -157.755805 0.030788 85.951809 -6.956693 -3.478699 18.349733 2.524463 -21.191732 -3.932714 0.031109 5.849523 -9.011431 nan nan nan -4.589646 10.068758 -22.413987 2.413136 19.397094 9.376324 15.776985 7.077734 8.429917 nan nan nan -0.246206 -6.403094 0.688977 5.234874 -5.533752 10.715448 0.912237 -3.820773 -4.363796 -7.423157 -0.134915 10.298547 5.729504 1.896448 -5.891363 -20.166119 0.526834 -0.604729 -56.396030 -19.511453 12.849331 22.509164 -38.233671 -32.475068 -4.341828 -23.824743 -12.022541 18.275101 -8.309526 0.616780 56.907960 -4.497614 6.717226 -6.397384 28.596705 -8.302069 13.009556 12.926314 -8.203124 
-26.881664 -4.749483 94.023102 -157.155643 0.156957 85.997654 -6.678698 -3.603468 18.636206 2.534552 -21.536923 -3.637285 0.035356 5.709804 -9.359927 nan nan nan -4.405361 10.399216 -22.410566 2.496255 19.628094 10.029916 16.591968 7.147184 9.021660 nan nan nan -0.190947 -6.496439 0.370901 5.268947 -5.490968 10.714615 0.806334 -3.715812 -4.223096 -7.132960 -0.221542 10.243016 5.721221 1.653305 -5.642985 -20.306149 0.651587 -0.763123 -56.708804 -19.032262 13.478878 21.931357 -37.892938 -31.481233 -3.640971 -23.768846 -11.958741 18.494774 -8.328631 0.541906 57.229227 -4.599137 6.569112 -6.930214 28.253204 -8.978196 12.153459 13.481321 -8.143123 
-26.977356 -4.086385 93.973465 -156.579315 0.322165 86.033768 -6.374412 -3.801085 18.926681 2.547737 -21.788743 -3.339108 0.152315 5.570924 -9.760303 nan nan nan -4.188764 10.774898 -22.489199 2.611211 19.640499 10.930669 17.396987 7.057962 9.533375 nan nan nan -0.120162 -6.631850 0.171923 5.314163 -5.386875 10.572160 0.694030 -3.519570 -4.069350 -6.821015 -0.210786 10.217157 5.707870 1.101538 -5.347744 -20.237999 1.142757 -1.466173 -57.488299 -18.614024 14.564381 21.031940 -36.999203 -30.290162 -3.632866 -23.775542 -11.944277 18.749107 -8.505722 0.446749 57.472861 -4.560465 6.665181 -7.410479 27.715755 -9.770755 11.803639 13.906555 -8.490172 
-27.089254 -3.420677 93.935265 -155.908013 0.472405 86.026525 -6.103662 -4.061493 19.262553 2.566629 -22.168737 -3.028335 0.217454 5.598652 -10.191673 nan nan nan -4.019746 10.966862 -22.487311 2.671343 19.370977 11.756663 17.737603 6.592905 9.994841 nan nan nan -0.122048 -6.723464 0.061736 5.442367 -5.334296 10.357900 0.640671 -3.473201 -3.888715 -6.630855 -0.349001 10.046072 5.662773 0.711159 -5.003010 -20.030361 1.644336 -1.772672 -58.311916 -18.314893 15.225876 20.001253 -36.181806 -29.081417 -4.568451 -23.762396 -12.033718 18.847315 -8.755064 0.395140 57.619322 -4.499821 6.832433 -7.587941 27.444313 -9.846680 12.210661 13.957924 -8.919168 
-27.217764 -2.722060 93.911407 -155.268138 0.578197 86.034245 -5.921001 -4.317313 19.589680 2.555434 -22.607739 -2.697155 0.227171 5.813331 -10.496577 nan nan nan -3.911414 11.064490 -22.470257 2.707203 18.721510 12.485926 17.398863 5.947050 10.469700 nan nan nan -0.250920 -6.834293 -0.212603 5.631850 -5.294715 10.375845 0.602737 -3.420888 -3.804317 -6.394074 -0.513800 9.817646 5.510049 0.529102 -4.607673 -19.791363 2.350361 -1.779096 -59.166735 -18.166970 15.600521 18.940650 -35.595155 -27.924037 -5.631266 -23.448213 -11.939992 18.917605 -8.998147 0.354346 57.662364 -4.350698 7.181128 -7.656199 27.107085 -9.831695 12.864632 13.895233 -9.481223 
-27.373381 -2.026916 93.898224 -154.658732 0.670971 85.990406 -5.829301 -4.555689 20.001166 2.623949 -23.010798 -2.433772 0.206992 6.121404 -10.578037 nan nan nan -3.852941 11.149795 -22.411804 2.907339 17.981395 13.350079 16.890076 5.390889 10.899789 nan nan nan -0.366351 -6.924939 -0.432138 5.790928 -5.258240 10.418939 0.620293 -3.395092 -3.766536 -6.271818 -0.742516 9.733158 5.410074 0.600322 -4.321284 -19.724984 2.581132 -1.661107 -59.799803 -17.614123 15.945596 18.345573 -35.038687 -27.054748 -5.998886 -23.197496 -12.318000 18.900364 -8.974389 0.278147 57.685947 -4.330646 7.462953 -7.563735 26.709819 -9.806772 13.100367 13.927396 -10.189698 
-27.530319 -1.349084 93.900291 -153.954602 0.794224 85.997197 -5.695046 -4.832616 20.343034 2.783891 -23.574015 -2.192799 0.225354 6.363538 -10.678134 nan nan nan -3.876532 11.209292 -22.315250 3.185534 17.173454 14.160641 16.745483 5.049903 11.091169 nan nan nan -0.447435 -7.010130 -0.638446 5.981272 -5.252215 10.443158 0.618770 -3.377195 -3.776705 -6.322837 -0.980764 9.746418 5.448385 0.551386 -4.195683 -19.554042 2.868518 -1.462872 -60.487808 -17.151087 16.227569 17.490750 -34.392624 -26.034502 -6.445511 -23.108397 -13.083628 18.845521 -8.993732 0.244455 57.795594 -4.324912 7.563839 -7.469567 26.475343 -9.685773 12.806461 14.163421 -10.361677 
-27.670502 -0.659799 93.925339 -153.144719 1.022954 86.053128 -5.350594 -5.115722 20.556187 2.899608 -24.237986 -1.861743 0.097640 6.534178 -10.756150 nan nan nan -3.842759 11.209711 -22.137153 3.404042 16.216185 14.696213 16.745312 4.684755 10.898567 nan nan nan -0.429229 -7.124221 -0.941533 6.180794 -5.337681 10.565649 0.593398 -3.380226 -3.867288 -6.513582 -1.170801 9.870575 5.616509 0.508650 -4.167084 -19.420155 3.078194 -1.139528 -61.100183 -16.603359 16.452178 16.748937 -33.764873 -24.985204 -6.340838 -23.109149 -14.188769 18.835013 -8.933342 0.294831 57.853865 -4.270567 7.636222 -7.352727 26.230506 -9.377999 11.918941 14.445940 -10.409592 
